<svg width="10" height="11" viewBox="0 0 10 11" fill="none" xmlns="http://www.w3.org/2000/svg">
<path d="M4.589 0.5585C4.69926 0.143911 5.30075 0.143912 5.41101 0.558501L6.24476 3.69352C6.28288 3.83683 6.39604 3.94948 6.54181 3.98922L9.68926 4.84717C10.1036 4.96011 10.1036 5.53501 9.68926 5.64795L6.54181 6.5059C6.39604 6.54564 6.28288 6.65828 6.24476 6.8016L5.411 9.93662C5.30074 10.3512 4.69926 10.3512 4.589 9.93661L3.75524 6.8016C3.71712 6.65828 3.60396 6.54564 3.45819 6.5059L0.310743 5.64795C-0.103581 5.53501 -0.103581 4.96011 0.310743 4.84717L3.45819 3.98922C3.60396 3.94948 3.71712 3.83683 3.75524 3.69351L4.589 0.5585Z" fill="#FF1DC0"/>
</svg>
